<svg width="56.719255" height="56.719256" xmlns="http://www.w3.org/2000/svg" version="1.1">
 <g>
  <title>Layer 1</title>
  <g id="layer1"  >
   <g transform="matrix(0.26458333,0,0,0.26458333,-24.557963,-24.555715)" id="g3">
    <path fill="#d7d7d7" id="path1" d="m234.28,180.82c-3.28,0 -5.94,2.66 -5.94,5.94c0,3.28 2.66,5.94 5.94,5.94c3.28,0 5.94,-2.66 5.94,-5.94c0,-3.28 -2.66,-5.94 -5.94,-5.94z" class="st0"/>
    <path fill="#d7d7d7" id="path2" d="m165.72,180.82c-3.28,0 -5.94,2.66 -5.94,5.94c0,3.28 2.66,5.94 5.94,5.94c3.28,0 5.94,-2.66 5.94,-5.94c-0.01,-3.28 -2.66,-5.94 -5.94,-5.94z" class="st0"/>
    <path fill="#d7d7d7" id="path3" d="m302.42,203.98l-23.85,-23.85c-1.29,-1.29 -1.9,-3.11 -1.66,-4.92l4.25,-31.37c0.73,-5.4 -3.47,-10.2 -8.92,-10.2l-23.05,0c-6.87,0 -11.78,4.73 -13.15,10.38c-0.47,1.92 -2.13,3.3 -4.11,3.3l-22.66,0l-9.27,0l-9.27,0l-22.66,0c-1.97,0 -3.64,-1.38 -4.11,-3.3c-1.38,-5.65 -6.29,-10.38 -13.15,-10.38l-23.05,0c-5.45,0 -9.65,4.8 -8.92,10.2l4.25,31.37c0.24,1.81 -0.37,3.63 -1.66,4.92l-23.85,23.85c-6.35,6.35 -6.35,16.75 0,23.1l35.96,35.96c2.12,2.12 4.99,3.31 7.99,3.31l116.94,0c3,0 5.87,-1.19 7.99,-3.31l35.96,-35.96c6.36,-6.35 6.36,-16.74 0,-23.1zm-51.26,-60.39l14.28,0c2.29,0 4.05,2.02 3.75,4.29l-2.73,20.14l-17.98,-17.98c-2.38,-2.37 -0.69,-6.45 2.68,-6.45zm-116.66,0l14.28,0c3.37,0 5.06,4.07 2.67,6.45l-17.98,17.98l-2.73,-20.14c-0.3,-2.27 1.47,-4.29 3.76,-4.29zm59.51,73.69l-6.63,-5.81c-3.18,-2.79 -1.21,-8.04 3.02,-8.04l19.19,0c4.23,0 6.21,5.25 3.02,8.04l-6.63,5.81c-3.42,3 -8.54,3 -11.97,0zm97.84,4.6l-31.14,31.14c-1.35,1.35 -3.17,2.1 -5.08,2.1l-25.07,0l18.03,-18.03c2.85,-2.85 2.85,-7.46 0,-10.31l-0.7,-0.7l-29.04,29.04l-15.87,0l36.98,-36.98l-34.11,-34.09c-3.23,-3.23 -8.46,-3.23 -11.68,0l-42.75,42.73c-2.85,2.85 -2.85,7.46 0,10.31l18.03,18.03l-25.07,0c-1.9,0 -3.73,-0.76 -5.07,-2.1l-31.14,-31.14c-3.51,-3.51 -3.51,-9.21 0,-12.72l45.95,-45.87c3.04,-3.04 7.15,-4.74 11.44,-4.74l18.69,0c3.19,0 6.29,1.06 8.81,3.02l4.54,3.54c1.42,1.1 3.41,1.1 4.83,0l4.54,-3.54c2.52,-1.96 5.62,-3.02 8.81,-3.02l18.69,0c4.29,0 8.41,1.7 11.44,4.74l45.95,45.87c3.5,3.51 3.5,9.21 -0.01,12.72z" class="st0"/>
   </g>
  </g>
 </g>
</svg>