<svg width="56.497537" height="56.497538" xmlns="http://www.w3.org/2000/svg"  version="1.1">
 <g>
  <title>Layer 1</title>
  <g id="layer1">
   <g transform="matrix(0.26458333,0,0,0.26458333,-146.94231,-24.669221)" id="g7">
    <path id="path4" d="m676.4,213.68c3.6,-3.15 1.37,-9.08 -3.41,-9.08l-21.69,0c-4.78,0 -7.01,5.93 -3.41,9.08l7.49,6.56c3.87,3.39 9.66,3.39 13.54,0l7.48,-6.56z"/>
    <path id="path5" d="m737.24,164.59l3.08,-22.76c0.35,-2.56 -1.65,-4.84 -4.23,-4.84l-16.14,0c-3.81,0 -5.71,4.6 -3.02,7.29l20.31,20.31z"/>
    <path id="path6" d="m586.97,164.59l20.31,-20.31c2.69,-2.69 0.79,-7.29 -3.02,-7.29l-16.14,0c-2.59,0 -4.58,2.28 -4.23,4.84l3.08,22.76z"/>
    <path id="path7" d="m765.93,211.07l-51.92,-51.83c-3.43,-3.43 -8.08,-5.36 -12.93,-5.36l-21.12,0c-3.61,0 -7.11,1.2 -9.95,3.42l-5.14,4c-1.6,1.25 -3.85,1.25 -5.46,0l-5.14,-4c-2.85,-2.21 -6.35,-3.42 -9.95,-3.42l-21.12,0c-4.85,0 -9.5,1.93 -12.93,5.36l-51.92,51.83c-3.97,3.97 -3.97,10.41 0,14.38l35.19,35.19c1.52,1.52 3.58,2.38 5.73,2.38l28.33,0l-20.38,-20.38c-3.22,-3.22 -3.22,-8.43 0,-11.65l48.3,-48.28c3.65,-3.65 9.56,-3.65 13.2,0l38.54,38.52l-41.78,41.78l17.93,0l32.82,-32.82l0.8,0.79c3.22,3.22 3.22,8.43 0,11.65l-20.38,20.38l28.35,0c2.15,0 4.21,-0.85 5.73,-2.38l35.19,-35.19c3.98,-3.96 3.98,-10.4 0.01,-14.37zm-142.53,-18.61c-3.7,0 -6.71,-3 -6.71,-6.71c0,-3.7 3,-6.71 6.71,-6.71c3.71,0 6.71,3 6.71,6.71c0,3.71 -3,6.71 -6.71,6.71zm77.48,0c-3.7,0 -6.71,-3 -6.71,-6.71c0,-3.7 3,-6.71 6.71,-6.71c3.71,0 6.71,3 6.71,6.71c0,3.71 -3.01,6.71 -6.71,6.71z"/>
   </g>
  </g>
 </g>
</svg>